<svg width="32" height="32" viewBox="0 0 32 32" fill="none" xmlns="http://www.w3.org/2000/svg">
<path fill-rule="evenodd" clip-rule="evenodd" d="M18.7779 4.84265C17.9556 4.29324 16.9889 4 16 4C14.6739 4 13.4022 4.52678 12.4645 5.46447C11.5268 6.40215 11 7.67392 11 9C11 9.98891 11.2932 10.9556 11.8427 11.7779C12.3921 12.6001 13.173 13.241 14.0866 13.6194C15.0002 13.9978 16.0056 14.0969 16.9755 13.9039C17.9454 13.711 18.8363 13.2348 19.5355 12.5355C20.2348 11.8363 20.711 10.9454 20.9039 9.97545C21.0969 9.00555 20.9978 8.00021 20.6194 7.08658C20.241 6.17295 19.6001 5.39206 18.7779 4.84265ZM12.111 3.17971C13.2622 2.41054 14.6155 2 16 2C17.8565 2 19.637 2.7375 20.9497 4.05025C22.2625 5.36301 23 7.14348 23 9C23 10.3845 22.5895 11.7378 21.8203 12.889C21.0511 14.0401 19.9579 14.9373 18.6788 15.4672C17.3997 15.997 15.9922 16.1356 14.6344 15.8655C13.2765 15.5954 12.0292 14.9287 11.0503 13.9497C10.0713 12.9708 9.4046 11.7235 9.13451 10.3656C8.86441 9.00776 9.00303 7.6003 9.53285 6.32122C10.0627 5.04213 10.9599 3.94888 12.111 3.17971ZM24 30H26V25C26 23.1435 25.2625 21.363 23.9497 20.0503C22.637 18.7375 20.8565 18 19 18H13C11.1435 18 9.36301 18.7375 8.05025 20.0503C6.7375 21.363 6 23.1435 6 25V30H8V25C8 23.6739 8.52678 22.4021 9.46447 21.4645C10.4021 20.5268 11.6739 20 13 20H19C19.6566 20 20.3068 20.1293 20.9134 20.3806C21.52 20.6319 22.0712 21.0002 22.5355 21.4645C22.9998 21.9288 23.3681 22.48 23.6194 23.0866C23.8707 23.6932 24 24.3434 24 25V30Z" fill="black" fill-opacity="0.87"/>
</svg>
